# xmcd CD database file
#
# Track frame offsets:
#	150
#	14937
#	29729
#	42246
#	54590
#	66546
#	80784
#	95607
#	110057
#	124287
#	138425
#	153248
#	168018
#	182851
#	197077
#	210962
#	224237
#	236520
#
# Disc length: 3367 seconds
#
# Revision: 0
# Processed by: cddbd v1.5.2PL0 Copyright (c) Steve Scherf et al.
# Submitted via: CDex 1.51
#
DISCID=190d2512
DTITLE=Ella Fitzgerald - The Collection
DYEAR=2008
DGENRE=Jazz
TTITLE0=Oh! Lady Be Good
TTITLE1=How High The Moon
TTITLE2=When My Sugar Walks Down The Street
TTITLE3=It's Only A Paper Moon
TTITLE4=Petootie Pie
TTITLE5=A Kiss Goodnight
TTITLE6=I've Got The World On A String
TTITLE7=For Sentimental Reasons
TTITLE8=Basin Street Blues
TTITLE9=Dream A Little Dream Of Me
TTITLE10=I've Got A Crush On You
TTITLE11=Someone To Watch Over Me
TTITLE12=My One And Only
TTITLE13=Looking For A Boy
TTITLE14=T'Ain't What You Do (It's The Way You Do it)
TTITLE15=I'm Gonna Wash That Man Right Out Of My Hair
TTITLE16=Baby It's Cold Outside
TTITLE17=Ev'ry Time We Say Goodbye
EXTD=YEAR: 2008
EXTT0=
EXTT1=
EXTT2=
EXTT3=
EXTT4=
EXTT5=
EXTT6=
EXTT7=
EXTT8=
EXTT9=
EXTT10=
EXTT11=
EXTT12=
EXTT13=
EXTT14=
EXTT15=
EXTT16=
EXTT17=
PLAYORDER=
